<svg width="20" height="20" viewBox="0 0 20 20" fill="none" xmlns="http://www.w3.org/2000/svg">
<g id="mdi:shop-plus" clip-path="url(#clip0_1389_368)">
<path id="Vector" d="M1 0.5V2.5H17V0.5M1 3.5L0 8.5V10.5H1V16.5H10C9.95 16.16 9.92 15.81 9.92 15.45C9.92 14.23 10.3 13.03 11 12.03V10.5H12.54C13.54 9.83 14.71 9.46 15.91 9.46C16.62 9.46 17.33 9.59 18 9.84V8.5L17 3.5M3 10.5H9V14.5H3M15 11.5V14.5H12V16.5H15V19.5H17V16.5H20V14.5H17V11.5" fill="#F8F8F8"/>
</g>
<defs>
<clipPath id="clip0_1389_368">
<rect width="20" height="20" fill="white"/>
</clipPath>
</defs>
</svg>
