<svg width="24" height="24" viewBox="0 0 24 24" fill="none" xmlns="http://www.w3.org/2000/svg">
<g clip-path="url(#clip0_1389_295)">
<path d="M22.0002 2.66699H2.00016C1.82335 2.66699 1.65378 2.73723 1.52876 2.86225C1.40373 2.98728 1.3335 3.15685 1.3335 3.33366V4.44699C1.33362 4.60445 1.36491 4.76033 1.42555 4.90564C1.48619 5.05095 1.57499 5.18282 1.68683 5.29366L9.3335 13.0537V19.8537L10.6668 20.3603V12.667C10.6673 12.5793 10.6505 12.4923 10.6173 12.4111C10.5842 12.3298 10.5353 12.256 10.4735 12.1937L2.66683 4.39366V4.00033H21.3335V4.40699L13.5535 12.1937C13.4869 12.2537 13.433 12.3266 13.3952 12.4079C13.3574 12.4892 13.3364 12.5774 13.3335 12.667V21.4737L14.6668 22.0003V13.0003L22.3135 5.33366C22.4271 5.22001 22.5169 5.0848 22.5776 4.93598C22.6383 4.78715 22.6686 4.6277 22.6668 4.46699V3.33366C22.6668 3.15685 22.5966 2.98728 22.4716 2.86225C22.3465 2.73723 22.177 2.66699 22.0002 2.66699Z" fill="black"/>
</g>
<defs>
<clipPath id="clip0_1389_295">
<rect width="24" height="24" fill="white"/>
</clipPath>
</defs>
</svg>
