<svg width="20" height="20" viewBox="0 0 20 20" fill="none" xmlns="http://www.w3.org/2000/svg">
<path fill-rule="evenodd" clip-rule="evenodd" d="M2.26689 9.16706C2.26689 5.81653 4.98303 3.10039 8.33356 3.10039C10.8961 3.10039 13.0888 4.68967 13.9774 6.93702C13.7661 6.91283 13.5512 6.90039 13.3334 6.90039C10.2406 6.90039 7.7334 9.4076 7.7334 12.5004C7.7334 15.5932 10.2406 18.1004 13.3334 18.1004H18.3334C18.6648 18.1004 18.9334 17.8318 18.9334 17.5004C18.9334 17.3631 18.8873 17.2367 18.8098 17.1356C18.4526 16.6593 18.3328 16.4945 18.2813 16.3884C18.1693 16.1579 18.1398 16.065 18.1287 15.9924C18.1176 15.9198 18.118 15.8223 18.156 15.5689C18.1613 15.5342 18.1885 15.4282 18.2713 15.1801C18.3491 14.947 18.4615 14.6295 18.615 14.1955C18.7944 13.6887 18.9334 13.1041 18.9334 12.5004C18.9334 10.119 17.447 8.0848 15.3513 7.27498C14.5186 4.17949 11.693 1.90039 8.33356 1.90039C4.32029 1.90039 1.06689 5.15379 1.06689 9.16706C1.06689 9.94871 1.23059 10.7136 1.44469 11.3832C1.61759 11.9239 1.74532 12.3234 1.83447 12.6159C1.92755 12.9213 1.96632 13.0718 1.97655 13.1356C2.0378 13.5176 2.04691 13.6997 2.02521 13.8545C2.00351 14.0093 1.94469 14.1819 1.78077 14.5323C1.70972 14.6842 1.55889 14.914 1.17222 15.4941C1.10578 15.5906 1.06689 15.7076 1.06689 15.8337C1.06689 16.1651 1.33552 16.4337 1.66689 16.4337H6.66689C6.99827 16.4337 7.26689 16.1651 7.26689 15.8337C7.26689 15.5024 6.99827 15.2337 6.66689 15.2337H2.76682C2.80627 15.1643 2.83977 15.1006 2.86774 15.0408C3.03924 14.6741 3.16545 14.3645 3.21359 14.0211C3.26173 13.6776 3.2255 13.3453 3.16142 12.9456C3.13585 12.7861 3.07054 12.5554 2.98234 12.266C2.89051 11.9647 2.76028 11.5575 2.58933 11.0229L2.58932 11.0228L2.58768 11.0177C2.39807 10.4247 2.26689 9.78749 2.26689 9.16706ZM17.7334 12.5004C17.7334 10.0703 15.7635 8.10039 13.3334 8.10039C10.9033 8.10039 8.9334 10.0703 8.9334 12.5004C8.9334 14.9304 10.9033 16.9004 13.3334 16.9004H17.1959C17.0785 16.6577 16.9818 16.4313 16.9424 16.1737C16.9024 15.9117 16.9285 15.6629 16.9693 15.3909C16.9926 15.2359 17.0559 15.0313 17.133 14.8003C17.2146 14.5556 17.3306 14.228 17.4813 13.8021L17.4815 13.8017L17.4838 13.7951C17.634 13.3707 17.7334 12.926 17.7334 12.5004Z" fill="#898C81"/>
</svg>
